<svg xmlns="http://www.w3.org/2000/svg" viewBox="0 0 512 512" id="video-call">
  <path fill="whitesmoke" fill-rule="evenodd" d="M192.623 204.561c0-2.19-1.776-4.001-3.973-4.001h-27.175c-2.215 0-4.02 1.782-4.02 4.001a4.005 4.005 0 0 0 4.02 4.001h27.175c2.199.001 3.973-1.809 3.973-4.001zm-70.012-19.947c0-6.611 4.712-13.497 11.785-13.497h166.491c7.073 0 11.785 6.885 11.785 13.497v142.77c0 6.614-4.71 13.497-11.785 13.497H134.395c-7.075 0-11.785-6.883-11.785-13.497v-142.77z" clip-rule="evenodd"></path>
  <path fill="white" fill-rule="evenodd" d="M196.623 204.561c0 4.421-3.585 8.001-7.973 8.001h-27.175c-4.434 0-8.02-3.581-8.02-8.001 0-4.416 3.585-8.001 8.02-8.001h27.175c4.387 0 7.973 3.585 7.973 8.001zm188.995 112.345-60.954-24.933v-71.942l60.954-24.934v121.809zm-76.947 10.478v-142.77c0-5.147-3.586-9.497-7.785-9.497H134.395c-4.199 0-7.785 4.35-7.785 9.497v142.77c0 5.152 3.585 9.497 7.785 9.497h166.491c4.199 0 7.785-4.345 7.785-9.497zm86.995-147.228c-3.821-2.548-8.398-3.015-12.644-1.283l-58.359 23.872v-18.13c0-14.059-10.662-25.495-23.778-25.495h-166.49c-13.116 0-23.778 11.436-23.778 25.495v142.77c0 14.064 10.662 25.5 23.778 25.5h166.491c13.116 0 23.778-11.436 23.778-25.5v-18.126l58.359 23.872a13.689 13.689 0 0 0 5.143 1.028c2.642 0 5.189-.783 7.501-2.316 3.774-2.543 5.944-6.628 5.944-11.195V191.356c0-4.567-2.17-8.648-5.945-11.2zM256.02 469.248c124.927 0 226.596-101.664 226.596-226.624S380.948 16 256.02 16C131.046 16 29.378 117.664 29.378 242.624c0 49.376 15.616 96.309 45.102 135.712 1.462 1.967 1.981 4.501 1.321 6.869L47.022 492.686l132.003-35.374c1.557-.41 3.161-.359 4.624.141 23.259 7.827 47.602 11.795 72.371 11.795zM427.559 71.062C381.749 25.238 320.795.003 256.02.003c-64.822 0-125.729 25.235-171.586 71.059-45.81 45.829-71.05 106.754-71.05 171.562 0 51.551 15.899 100.616 45.998 142.157l-31.42 117.152c-.708 2.76.047 5.704 2.076 7.728a8.022 8.022 0 0 0 7.737 2.067l143.09-38.341c24.202 7.869 49.443 11.86 75.154 11.86 64.775 0 125.729-25.235 171.539-71.059 45.81-45.829 71.05-106.754 71.05-171.563.001-64.809-25.24-125.735-71.049-171.563z" clip-rule="evenodd"></path>
</svg>